<svg id="katman_1" data-name="katman 1" xmlns="http://www.w3.org/2000/svg" xmlns:xlink="http://www.w3.org/1999/xlink" viewBox="0 0 883 371"><defs><style>.cls-1{fill:url(#linear-gradient);}.cls-10,.cls-2,.cls-3,.cls-5{fill:#f3f3f5;}.cls-2{opacity:0.18;}.cls-3{font-size:19px;letter-spacing:0.01em;}.cls-10,.cls-14,.cls-16,.cls-23,.cls-27,.cls-28,.cls-3,.cls-30,.cls-5{font-family:MyriadPro-Regular, Myriad Pro;}.cls-13,.cls-33,.cls-34,.cls-35,.cls-4,.cls-8,.cls-9{fill:none;stroke-linejoin:round;}.cls-4{stroke:#0df7ff;stroke-width:1.01px;}.cls-4,.cls-8,.cls-9{stroke-linecap:round;}.cls-5{font-size:29.26px;letter-spacing:0.01em;}.cls-6{fill:#ededed;}.cls-14,.cls-16,.cls-23,.cls-27,.cls-28,.cls-30,.cls-7{fill:#fff;}.cls-8{stroke:#ff9d00;}.cls-9{stroke:#e9e9e9;}.cls-13,.cls-33,.cls-34,.cls-35,.cls-9{stroke-width:1.82px;}.cls-10{font-size:19.37px;}.cls-10,.cls-17,.cls-30{letter-spacing:0.01em;}.cls-11{letter-spacing:-0.08em;}.cls-12{letter-spacing:0.01em;}.cls-13,.cls-33,.cls-34,.cls-35{stroke:#83f5ff;}.cls-13{stroke-dasharray:3.64;}.cls-14,.cls-27{font-size:12.92px;}.cls-14{letter-spacing:0.01em;}.cls-15{letter-spacing:-0.01em;}.cls-16,.cls-23,.cls-28,.cls-30{font-size:9.69px;}.cls-16,.cls-25{letter-spacing:0.02em;}.cls-18{letter-spacing:0.02em;}.cls-19{letter-spacing:-0.04em;}.cls-20{letter-spacing:-0.02em;}.cls-21{letter-spacing:-0.03em;}.cls-22,.cls-27{letter-spacing:0.01em;}.cls-24,.cls-28{letter-spacing:0.01em;}.cls-26{letter-spacing:-0.01em;}.cls-29{letter-spacing:0.02em;}.cls-31{letter-spacing:-0.03em;}.cls-32{letter-spacing:-0.02em;}.cls-34{stroke-dasharray:3.62 3.62;}.cls-35{stroke-dasharray:3.74 3.74;}</style><linearGradient id="linear-gradient" x1="120.26" y1="-125.24" x2="718.61" y2="479.64" gradientUnits="userSpaceOnUse"><stop offset="0" stop-color="#002358"/><stop offset="0.51" stop-color="#002a85"/><stop offset="1" stop-color="#00224a"/></linearGradient></defs><title>TP04</title><rect class="cls-1" y="-59" width="883" height="517"/><circle class="cls-2" cx="124.58" cy="277.42" r="66.58" transform="translate(-159.68 169.34) rotate(-45)"/><text class="cls-3" transform="translate(108.67 332.58)">SQL</text><circle class="cls-2" cx="349.47" cy="116.5" r="102.5" transform="translate(19.98 281.24) rotate(-45)"/><rect class="cls-4" x="280.09" y="56.14" width="139.26" height="94.57" rx="2.41"/><rect class="cls-4" x="290.62" y="66.91" width="118.19" height="73.02"/><polygon class="cls-4" points="376.94 165 322.5 165 329.68 150.71 369.76 150.71 376.94 165"/><path class="cls-4" d="M384.34,172.48H315.1a7.48,7.48,0,0,1,7.49-7.48h54.26a7.48,7.48,0,0,1,7.49,7.48Z"/><text class="cls-5" transform="translate(333.6 209.56)">ISS</text><rect class="cls-6" x="291.46" y="67.97" width="116.04" height="71.2"/><circle class="cls-2" cx="813.62" cy="221.88" r="14.89" transform="translate(462.62 988.7) rotate(-80.66)"/><circle class="cls-2" cx="576.88" cy="280.37" r="67.88"/><rect class="cls-7" x="546.26" y="299.44" width="5.33" height="4.27" transform="translate(-52.47 476.48) rotate(-45)"/><polygon class="cls-7" points="547.72 296.61 553.9 302.78 554.66 295.85 547.72 296.61"/><rect class="cls-7" x="605.6" y="298.92" width="4.27" height="5.33" transform="translate(-35.25 518.05) rotate(-45)"/><polygon class="cls-7" points="608.93 296.61 602.76 302.78 602 295.85 608.93 296.61"/><rect class="cls-7" x="546.79" y="256.58" width="4.27" height="5.33" transform="translate(-22.53 464.09) rotate(-45)"/><polygon class="cls-7" points="547.72 264.22 553.9 258.04 554.66 264.98 547.72 264.22"/><rect class="cls-7" x="605.07" y="257.11" width="5.33" height="4.27" transform="translate(-5.31 505.66) rotate(-45)"/><polygon class="cls-7" points="608.93 264.22 602.76 258.04 602 264.98 608.93 264.22"/><polygon class="cls-8" points="576.08 256.47 593.73 266.56 577.96 276.81 560.02 266.64 576.08 256.47"/><polyline class="cls-8" points="593.73 266.56 593.73 284.69 577.57 294.16 577.96 276.81"/><polyline class="cls-8" points="560.02 266.64 560.4 284.94 577.57 294.16"/><polyline class="cls-9" points="568.27 252.16 577.18 264.88 596.2 237.19"/><text class="cls-10" transform="translate(533.74 333.94)">MU<tspan class="cls-11" x="28.5" y="0">L</tspan><tspan class="cls-12" x="36.13" y="0">TİBUS</tspan></text><line class="cls-13" x1="674.18" y1="259.25" x2="641.15" y2="259.25"/><line class="cls-13" x1="674.18" y1="304.97" x2="641.15" y2="304.97"/><rect class="cls-2" x="676.2" y="206.42" width="120.1" height="33.08" rx="4.98"/><text class="cls-14" transform="translate(684.92 221.4)">ENERJİ ANALİ<tspan class="cls-15" x="73.8" y="0">Z</tspan><tspan x="80.8" y="0">ÖRÜ</tspan></text><text class="cls-16" transform="translate(694.98 233.96)">M<tspan class="cls-17" x="7.94" y="0">odbus </tspan><tspan class="cls-18" x="36.05" y="0">R</tspan><tspan class="cls-17" x="41.44" y="0">TU</tspan><tspan class="cls-19" x="52.72" y="0">-</tspan><tspan class="cls-20" x="55.3" y="0">T</tspan><tspan class="cls-17" x="59.95" y="0">CP/IP</tspan></text><rect class="cls-2" x="676.2" y="243.61" width="120.1" height="33.08" rx="4.98"/><text class="cls-14" transform="translate(727.44 258.59)">P<tspan class="cls-21" x="7" y="0">L</tspan><tspan class="cls-22" x="12.72" y="0">C</tspan></text><text class="cls-23" transform="translate(681.73 271.15)"><tspan class="cls-24">Bacnet - </tspan><tspan class="cls-25" x="35.65" y="0">M</tspan><tspan class="cls-17" x="43.59" y="0">odbus , </tspan><tspan class="cls-26" x="75.95" y="0">P</tspan><tspan x="81.04" y="0">r</tspan><tspan class="cls-17" x="84.21" y="0">ofinet</tspan></text><rect class="cls-2" x="676.2" y="280.8" width="120.1" height="33.08" rx="4.98"/><text class="cls-27" transform="translate(726.47 295.78)">HMI</text><text class="cls-28" transform="translate(700.14 311.57)">Bacnet - <tspan class="cls-25" x="35.65" y="0">M</tspan><tspan class="cls-17" x="43.59" y="0">odbus </tspan></text><rect class="cls-2" x="676.2" y="317.99" width="120.1" height="33.08" rx="4.98"/><text class="cls-14" transform="translate(711.41 332.97)">TE<tspan class="cls-29" x="13.03" y="0">X</tspan><tspan class="cls-22" x="20.64" y="0">T FİLE</tspan></text><text class="cls-30" transform="translate(710.38 348.75)">Udp -<tspan class="cls-31" x="22.75" y="0"> </tspan><tspan class="cls-32" x="24.51" y="0">T</tspan><tspan class="cls-24" x="29.16" y="0">CP/IP</tspan></text><circle class="cls-2" cx="813.62" cy="259.23" r="14.89" transform="translate(425.77 1019.99) rotate(-80.66)"/><circle class="cls-2" cx="813.62" cy="296.59" r="14.89" transform="translate(388.91 1051.28) rotate(-80.66)"/><circle class="cls-2" cx="813.62" cy="333.94" r="14.89" transform="matrix(0.16, -0.99, 0.99, 0.16, 352.05, 1082.57)"/><text class="cls-14" transform="translate(806.42 225.69)">EA</text><text class="cls-14" transform="translate(802.56 263.27)">P<tspan class="cls-21" x="7" y="0">L</tspan><tspan class="cls-22" x="12.72" y="0">C</tspan></text><text class="cls-27" transform="translate(801.42 300.3)">HMI</text><text class="cls-14" transform="translate(807.2 338.05)">TF</text><line class="cls-33" x1="509" y1="285.53" x2="507.17" y2="285.53"/><line class="cls-34" x1="503.56" y1="285.53" x2="194.2" y2="285.53"/><line class="cls-33" x1="192.39" y1="285.53" x2="190.56" y2="285.53"/><line class="cls-33" x1="181.94" y1="245.36" x2="183.23" y2="244.07"/><line class="cls-35" x1="185.87" y1="241.43" x2="258.54" y2="168.76"/><line class="cls-33" x1="259.86" y1="167.44" x2="261.15" y2="166.15"/><line class="cls-33" x1="518.48" y1="245.36" x2="517.19" y2="244.07"/><line class="cls-35" x1="514.55" y1="241.43" x2="441.88" y2="168.76"/><line class="cls-33" x1="440.56" y1="167.44" x2="439.27" y2="166.15"/></svg>