<?xml version="1.0" ?>
<!DOCTYPE svg  PUBLIC '-//W3C//DTD SVG 1.1//EN'  'http://www.w3.org/Graphics/SVG/1.1/DTD/svg11.dtd'>
<!-- Uploaded to: SVG Repo, www.svgrepo.com, Generator: SVG Repo Mixer Tools -->
<svg width="800px" height="800px" viewBox="0 0 32 32" enable-background="new 0 0 32 32" version="1.1" xml:space="preserve" xmlns="http://www.w3.org/2000/svg" xmlns:xlink="http://www.w3.org/1999/xlink">
<g id="Layer_2"/>
<g id="Layer_3"/>
<g id="Layer_4">
<g>
<path d="M9.02,6C9.0127,6,9.0068,5.999,9,6H2C1.4478,6,1,5.5527,1,5V2c0-0.5527,0.4478-1,1-1h6    c0.4307,0,0.8125,0.2754,0.9487,0.6836l0.9404,2.8213C9.9722,4.6514,10.02,4.8203,10.02,5C10.02,5.5527,9.5723,6,9.02,6z M3,4    h4.6128L7.2793,3H3V4z" fill="#F5D803"/>
</g>
<g>
<path d="M24.0195,22c-0.0039,0-0.0117,0.001-0.0195,0h-7c-0.5522,0-1-0.4473-1-1v-3c0-0.5527,0.4478-1,1-1h6    c0.4307,0,0.8125,0.2754,0.9482,0.6836l0.9404,2.8213c0.084,0.1465,0.1309,0.3154,0.1309,0.4951    C25.0195,21.5527,24.5723,22,24.0195,22z M18,20h4.6123l-0.333-1H18V20z" fill="#F5D803"/>
</g>
<g>
<path d="M15,15H2c-0.5522,0-1-0.4473-1-1V5c0-0.5527,0.4478-1,1-1h13c0.5522,0,1,0.4473,1,1v9    C16,14.5527,15.5522,15,15,15z M3,13h11V6H3V13z" fill="#0181B0"/>
</g>
<g>
<path d="M30,31H17c-0.5522,0-1-0.4473-1-1v-9c0-0.5527,0.4478-1,1-1h13c0.5527,0,1,0.4473,1,1v9    C31,30.5527,30.5527,31,30,31z M18,29h11v-7H18V29z" fill="#0181B0"/>
</g>
<g>
<path d="M26,8h-8c-0.5527,0-1,0.4473-1,1s0.4473,1,1,1h7v6c0,0.5527,0.4473,1,1,1s1-0.4473,1-1V9    C27,8.4473,26.5527,8,26,8z" fill="#00ACBA"/>
<g>
<path d="M20,12c-0.2559,0-0.5117-0.0977-0.707-0.293l-2-2c-0.3906-0.3906-0.3906-1.0234,0-1.4141l2-2     c0.3906-0.3906,1.0234-0.3906,1.4141,0s0.3906,1.0234,0,1.4141L19.4141,9l1.293,1.293c0.3906,0.3906,0.3906,1.0234,0,1.4141     C20.5117,11.9023,20.2559,12,20,12z" fill="#F5D803"/>
</g>
</g>
<g>
<path d="M14,25H7v-6c0-0.5527-0.4478-1-1-1s-1,0.4473-1,1v7c0,0.5527,0.4478,1,1,1h8c0.5522,0,1-0.4473,1-1    S14.5522,25,14,25z" fill="#00ACBA"/>
<g>
<path d="M12,29c-0.2559,0-0.5117-0.0977-0.707-0.293c-0.3906-0.3906-0.3906-1.0234,0-1.4141L12.5859,26     l-1.293-1.293c-0.3906-0.3906-0.3906-1.0234,0-1.4141s1.0234-0.3906,1.4141,0l2,2c0.3906,0.3906,0.3906,1.0234,0,1.4141l-2,2     C12.5117,28.9023,12.2559,29,12,29z" fill="#F5D803"/>
</g>
</g>
</g>
<g id="Layer_5"/>
<g id="Layer_6"/>
<g id="Layer_7"/>
<g id="Layer_8"/>
<g id="Layer_9"/>
<g id="Layer_10"/>
<g id="Layer_11"/>
<g id="Layer_12"/>
<g id="Layer_13"/>
<g id="Layer_14"/>
<g id="Layer_15"/>
<g id="Layer_16"/>
<g id="Layer_17"/>
<g id="Layer_18"/>
<g id="Layer_19"/>
<g id="Layer_20"/>
<g id="Layer_21"/>
<g id="Layer_22"/>
<g id="Layer_23"/>
<g id="Layer_24"/>
<g id="Layer_25"/>
<g id="Layer_26"/>
</svg>