<?xml version="1.0" encoding="iso-8859-1"?>
<!-- Uploaded to: SVG Repo, www.svgrepo.com, Generator: SVG Repo Mixer Tools -->
<!DOCTYPE svg PUBLIC "-//W3C//DTD SVG 1.1//EN" "http://www.w3.org/Graphics/SVG/1.1/DTD/svg11.dtd">
<svg version="1.1" id="Capa_1" xmlns="http://www.w3.org/2000/svg" xmlns:xlink="http://www.w3.org/1999/xlink" 
	 viewBox="0 0 412.043 412.043" xml:space="preserve">
<g>
	<rect x="136.176" y="305.355" style="fill:#191918;" width="9" height="17.333"/>
	<rect x="155.196" y="305.355" style="fill:#191918;" width="9" height="17.333"/>
	<rect x="174.217" y="305.355" style="fill:#191918;" width="9" height="17.333"/>
	<rect x="193.237" y="305.355" style="fill:#191918;" width="9" height="17.333"/>
	<rect x="212.258" y="305.355" style="fill:#191918;" width="9" height="17.333"/>
	<rect x="231.279" y="305.355" style="fill:#191918;" width="9" height="17.333"/>
	<rect x="269.32" y="305.355" style="fill:#191918;" width="9" height="17.333"/>
	<rect x="250.299" y="305.355" style="fill:#191918;" width="9" height="17.333"/>
	<rect x="288.34" y="305.355" style="fill:#191918;" width="9" height="17.333"/>
	<rect x="307.361" y="305.355" style="fill:#191918;" width="9" height="17.333"/>
	<rect x="326.381" y="305.355" style="fill:#191918;" width="9" height="17.333"/>
	<rect x="364.422" y="305.355" style="fill:#191918;" width="9" height="17.333"/>
	<rect x="345.402" y="305.355" style="fill:#191918;" width="9" height="17.333"/>
	<rect x="383.443" y="305.355" style="fill:#191918;" width="9" height="17.333"/>
	<rect x="136.176" y="332.688" style="fill:#191918;" width="9" height="17.333"/>
	<rect x="155.196" y="332.688" style="fill:#191918;" width="9" height="17.333"/>
	<rect x="174.217" y="332.688" style="fill:#191918;" width="9" height="17.333"/>
	<rect x="193.237" y="332.688" style="fill:#191918;" width="9" height="17.333"/>
	<rect x="212.258" y="332.688" style="fill:#191918;" width="9" height="17.333"/>
	<rect x="231.279" y="332.688" style="fill:#191918;" width="9" height="17.333"/>
	<rect x="269.32" y="332.688" style="fill:#191918;" width="9" height="17.333"/>
	<rect x="250.299" y="332.688" style="fill:#191918;" width="9" height="17.333"/>
	<rect x="288.34" y="332.688" style="fill:#191918;" width="9" height="17.333"/>
	<rect x="307.361" y="332.688" style="fill:#191918;" width="9" height="17.333"/>
	<rect x="326.381" y="332.688" style="fill:#191918;" width="9" height="17.333"/>
	<rect x="364.422" y="332.688" style="fill:#191918;" width="9" height="17.333"/>
	<rect x="345.402" y="332.688" style="fill:#191918;" width="9" height="17.333"/>
	<rect x="383.443" y="332.688" style="fill:#191918;" width="9" height="17.333"/>
	<path style="fill:#191918;" d="M378.709,282.521v-80.957c0-10.133-8.243-18.376-18.376-18.376h-20.29v-25.333h0.413
		c2.485,0,4.5-2.015,4.5-4.5s-2.015-4.5-4.5-4.5h-0.413v-4.698h0.413c2.485,0,4.5-2.015,4.5-4.5s-2.015-4.5-4.5-4.5h-0.413V107.05
		c0-19.43-14.661-35.49-33.501-37.724v-12.65c0-9.643-7.845-17.487-17.487-17.487h-75.439c-9.642,0-17.486,7.845-17.486,17.487
		v12.649c-16.684,1.979-30.081,14.802-32.93,31.206H72.451c-13.417,0-24.333,10.911-24.333,24.323v31.743h-2.318
		c-2.485,0-4.5,2.015-4.5,4.5s2.015,4.5,4.5,4.5h33.974c2.485,0,4.5-2.015,4.5-4.5s-2.015-4.5-4.5-4.5h-2.323v-25.615
		c0-0.617,0.502-1.119,1.119-1.119h84.058v5.294h-0.413c-2.485,0-4.5,2.015-4.5,4.5s2.015,4.5,4.5,4.5h0.413v4.698h-0.413
		c-2.485,0-4.5,2.015-4.5,4.5s2.015,4.5,4.5,4.5h0.413v31.67h-10.585v-2.322c0-2.485-2.015-4.5-4.5-4.5s-4.5,2.015-4.5,4.5v33.974
		c0,2.485,2.015,4.5,4.5,4.5s4.5-2.015,4.5-4.5v-2.321h10.585v18.635h-0.413c-2.485,0-4.5,2.015-4.5,4.5s2.015,4.5,4.5,4.5h0.413
		v4.698h-0.413c-2.485,0-4.5,2.015-4.5,4.5s2.015,4.5,4.5,4.5h0.413v22.333h-37.053v-34.867l-48.12-42.009v-26.957h2.32
		c2.485,0,4.5-2.015,4.5-4.5s-2.015-4.5-4.5-4.5H45.801c-2.485,0-4.5,2.015-4.5,4.5s2.015,4.5,4.5,4.5h2.319v26.957L0,247.654
		v125.201h412.043v-90.334H378.709z M360.333,192.188c5.17,0,9.376,4.206,9.376,9.376v80.957h-29.666v-22.333h0.413
		c2.485,0,4.5-2.015,4.5-4.5s-2.015-4.5-4.5-4.5h-0.413v-4.698h0.413c2.485,0,4.5-2.015,4.5-4.5s-2.015-4.5-4.5-4.5h-0.413v-45.302
		H360.333z M239.043,251.188h-0.414v-4.698h0.414c2.485,0,4.5-2.015,4.5-4.5s-2.015-4.5-4.5-4.5h-0.414v-18.635h25.412v18.635
		h-0.413c-2.485,0-4.5,2.015-4.5,4.5s2.015,4.5,4.5,4.5h0.413v4.698h-0.413c-2.485,0-4.5,2.015-4.5,4.5s2.015,4.5,4.5,4.5h0.413
		v22.333h-25.412v-22.333h0.414c2.485,0,4.5-2.015,4.5-4.5S241.529,251.188,239.043,251.188z M264.042,209.855h-25.412v-11.33
		h25.412V209.855z M273.042,246.49h58.002v4.698h-58.002V246.49z M273.042,260.188h58.002v22.333h-58.002V260.188z M331.043,237.49
		h-58.002v-79.635h58.002V237.49z M331.043,148.855h-58.002v-4.698h58.002V148.855z M331.043,107.05v28.107h-58.002V107.05
		c0-15.99,13.01-29,29.001-29S331.043,91.059,331.043,107.05z M213.616,48.188h75.439c4.68,0,8.487,3.808,8.487,8.487v12.65
		c-18.839,2.234-33.501,18.295-33.501,37.724v28.107h-0.413c-2.485,0-4.5,2.015-4.5,4.5s2.015,4.5,4.5,4.5h0.413v4.698h-0.413
		c-2.485,0-4.5,2.015-4.5,4.5s2.015,4.5,4.5,4.5h0.413v31.67h-25.412v-31.67h0.414c2.485,0,4.5-2.015,4.5-4.5s-2.015-4.5-4.5-4.5
		h-0.414v-4.698h0.414c2.485,0,4.5-2.015,4.5-4.5s-2.015-4.5-4.5-4.5h-0.414V107.05c0-19.43-14.661-35.49-33.5-37.724v-12.65
		C205.129,51.996,208.936,48.188,213.616,48.188z M78.571,120.863c-5.58,0-10.119,4.539-10.119,10.119v25.615H57.119v-31.743
		c0-8.449,6.878-15.323,15.333-15.323h90.177v11.332H78.571z M171.628,107.05c0-15.99,13.01-29,29.001-29c15.99,0,29,13.01,29,29
		v28.107h-58.001V107.05z M171.628,144.157h58.001v4.698h-58.001V144.157z M152.043,209.855v-11.33h10.585v11.33H152.043z
		 M171.628,157.855h58.001v79.635h-58.001V157.855z M171.628,246.49h58.001v4.698h-58.001V246.49z M171.628,260.188h58.001v22.333
		h-58.001V260.188z M71.267,212.19l37.811,33.009H16.497l37.811-33.009H71.267z M68.455,178.688v24.502H57.12v-24.502H68.455z
		 M9,254.199h107.575v109.656H9V254.199z M403.043,363.855H125.575v-72.334h277.468V363.855z"/>
	<path style="fill:#191918;" d="M21.543,260.532c-2.485,0-4.5,2.015-4.5,4.5v86.656c0,2.485,2.015,4.5,4.5,4.5s4.5-2.015,4.5-4.5
		v-86.656C26.043,262.547,24.029,260.532,21.543,260.532z"/>
	<path style="fill:#191918;" d="M200.629,182.703c-11.939,0-21.652,9.713-21.652,21.652c0,11.938,9.713,21.651,21.652,21.651
		c11.938,0,21.651-9.713,21.651-21.651C222.281,192.416,212.568,182.703,200.629,182.703z M200.629,217.007
		c-6.977,0-12.652-5.676-12.652-12.651c0-6.977,5.676-12.652,12.652-12.652c6.976,0,12.651,5.676,12.651,12.652
		C213.281,211.331,207.605,217.007,200.629,217.007z"/>
	<path style="fill:#191918;" d="M302.042,226.007c11.939,0,21.652-9.713,21.652-21.651c0-11.939-9.713-21.652-21.652-21.652
		s-21.652,9.713-21.652,21.652C280.39,216.294,290.103,226.007,302.042,226.007z M302.042,191.703
		c6.977,0,12.652,5.676,12.652,12.652c0,6.976-5.676,12.651-12.652,12.651s-12.652-5.676-12.652-12.651
		C289.39,197.379,295.066,191.703,302.042,191.703z"/>
</g>
</svg>