<svg class="svg-icon" style="width: 1em;height: 1em;vertical-align: middle;fill: currentColor;overflow: hidden;" viewBox="0 0 1024 1024" version="1.1" xmlns="http://www.w3.org/2000/svg"><path d="M384 85.333333v85.333334H213.333333l-0.042666 426.666666h597.333333L810.666667 170.666667h-170.666667V85.333333h213.333333a42.666667 42.666667 0 0 1 42.666667 42.666667v768a42.666667 42.666667 0 0 1-42.666667 42.666667H170.666667a42.666667 42.666667 0 0 1-42.666667-42.666667V128a42.666667 42.666667 0 0 1 42.666667-42.666667h213.333333z m426.624 597.333334h-597.333333L213.333333 853.333333h597.333334l-0.042667-170.666666zM725.333333 725.333333v85.333334h-85.333333v-85.333334h85.333333zM554.666667 85.333333v213.333334h128l-170.666667 170.666666-170.666667-170.666666h128V85.333333h85.333334z"  /></svg>