<?xml version="1.0" encoding="iso-8859-1"?>
<!-- Uploaded to: SVG Repo, www.svgrepo.com, Generator: SVG Repo Mixer Tools -->
<svg fill="#000000" height="800px" width="800px" version="1.1" id="Layer_1" xmlns="http://www.w3.org/2000/svg" xmlns:xlink="http://www.w3.org/1999/xlink" 
	 viewBox="0 0 512 512" xml:space="preserve">
<g>
	<g>
		<path d="M499.201,204.8H315l19.567-19.567c2.441-2.441,3.174-6.11,1.852-9.301c-1.323-3.183-4.437-5.265-7.885-5.265h-52.531
			l58.743-62.413c2.33-2.483,2.97-6.11,1.621-9.233c-1.348-3.123-4.429-5.154-7.834-5.154h-68.599l74.812-79.479
			c2.33-2.483,2.97-6.11,1.621-9.233C335.02,2.031,331.939,0,328.534,0H157.867c-2.261,0-4.437,0.896-6.033,2.5L6.768,147.567
			c-2.441,2.44-3.174,6.11-1.852,9.301c1.323,3.183,4.437,5.265,7.885,5.265H87.51L6.819,241.382
			c-2.475,2.432-3.226,6.11-1.92,9.318c1.314,3.2,4.437,5.299,7.902,5.299h56.2L6.768,318.234c-2.441,2.441-3.174,6.11-1.852,9.301
			c1.323,3.183,4.437,5.265,7.885,5.265h179.2c2.406,0,4.693-1.015,6.315-2.79l70.485-77.534v250.991
			c0,4.71,3.823,8.533,8.533,8.533h221.867c4.719,0,8.533-3.823,8.533-8.533V213.333C507.734,208.623,503.92,204.8,499.201,204.8z
			 M33.4,145.067l128-128h147.379l-120.465,128H33.4z M33.665,238.933l78.199-76.8h80.111c0.077,0,0.154,0,0.23,0
			c0.009,0,0.017,0,0.026,0c0-0.009,0.017,0,0.026,0c0.009,0,0.009,0,0.026,0c0,0,0,0,0.008,0c0.009,0,0.026,0,0.026,0
			c0.009,0,0.009,0,0.017,0c0,0,0.008,0,0.026,0c0,0,0.017,0,0.026,0c0.008,0,0.017,0,0.017,0c0.009,0,0.009,0,0.017,0
			c2.074-0.102,4.105-0.956,5.666-2.552c0.009-0.008,0.026-0.026,0.034-0.043l46.993-48.606h63.667l-120.465,128H33.665z
			 M268.801,213.333v13.764l-80.572,88.636H33.4L93.134,256h98.867c2.355,0,4.599-0.973,6.212-2.679l61.781-65.638
			c0.094,0,0.179,0.051,0.273,0.051h47.667L290.868,204.8h-13.534C272.624,204.8,268.801,208.623,268.801,213.333z M490.668,494.933
			h-204.8V221.867h204.8V494.933z"/>
	</g>
</g>
<g>
	<g>
		<path d="M396.801,238.933h-85.333c-4.71,0-8.533,3.823-8.533,8.533v76.8c0,4.71,3.823,8.533,8.533,8.533h85.333
			c4.719,0,8.533-3.823,8.533-8.533v-76.8C405.334,242.756,401.52,238.933,396.801,238.933z M388.267,315.733h-68.267V256h68.267
			V315.733z"/>
	</g>
</g>
<g>
	<g>
		<path d="M465.067,238.933h-34.133c-4.719,0-8.533,3.823-8.533,8.533v76.8c0,4.71,3.814,8.533,8.533,8.533h34.133
			c4.719,0,8.533-3.823,8.533-8.533v-76.8C473.601,242.756,469.786,238.933,465.067,238.933z M456.534,315.733h-17.067V256h17.067
			V315.733z"/>
	</g>
</g>
<g>
	<g>
		<path d="M448.001,384h-85.333c0-4.71-3.823-8.533-8.533-8.533c-4.71,0-8.533,3.823-8.533,8.533h-8.533
			c-4.71,0-8.533,3.823-8.533,8.533c0,4.71,3.823,8.533,8.533,8.533h8.533c0,4.71,3.823,8.533,8.533,8.533
			c4.71,0,8.533-3.823,8.533-8.533h85.333c4.719,0,8.533-3.823,8.533-8.533C456.534,387.823,452.72,384,448.001,384z"/>
	</g>
</g>
<g>
	<g>
		<path d="M448.001,443.733h-34.133c0-4.71-3.814-8.533-8.533-8.533c-4.719,0-8.533,3.823-8.533,8.533h-59.733
			c-4.71,0-8.533,3.823-8.533,8.533c0,4.71,3.823,8.533,8.533,8.533h59.733c0,4.71,3.814,8.533,8.533,8.533
			c4.719,0,8.533-3.823,8.533-8.533h34.133c4.719,0,8.533-3.823,8.533-8.533C456.534,447.556,452.72,443.733,448.001,443.733z"/>
	</g>
</g>
</svg>