<?xml version="1.0" encoding="iso-8859-1"?>
<!-- Uploaded to: SVG Repo, www.svgrepo.com, Generator: SVG Repo Mixer Tools -->
<svg fill="#000000" height="800px" width="800px" version="1.1" id="Capa_1" xmlns="http://www.w3.org/2000/svg" xmlns:xlink="http://www.w3.org/1999/xlink" 
	 viewBox="0 0 252.82 252.82" xml:space="preserve">
<path d="M242.179,212.635V58.634h-80.936v40.877h-13.465l-1.351-33.828h5.284V45.247h-6.1l-0.415-10.382h6.515V14.431h-46.927
	v20.435h6.515l-0.415,10.382h-6.1v20.436h5.284l-2.8,70.125H96.186V95.007H10.642v117.628H0v25.755h252.82v-25.755H242.179z
	 M73.501,135.808H51.714v76.827H33.327v-94.942h40.174V135.808z M137.797,213.516h-19.099v-88h19.099V213.516z M219.494,212.635
	h-18.316v-51.411h18.316V212.635z M219.494,138.539h-18.316V99.511h-17.25V81.319h35.566V138.539z"/>
</svg>